# xmcd
#
# Track frame offsets: 
#        150
#        20503
#        32332
#        50683
#        79226
#        93608
#        109893
#        144622
#        165624
#        183468
#        201015
#        221091
#        236375
#        272207
#        286911
#        305798
#        330858
#
# Disc length: 4598 seconds
#
# Revision: 0
# Processed by: cddbd v1.5.2PL0 Copyright (c) Steve Scherf et al.
# Submitted via: ExactAudioCopy v0.95a5
#
DISCID=f511f411
DTITLE=Various Artist - For DK
DYEAR=2007
DGENRE=Blues
TTITLE0=The Scissor Sisters/Take Me Out
TTITLE1=The Black Keys/Do The Rump
TTITLE2=Freddie King/Me and My Guitar
TTITLE3=Eddie Russ/The Lope Song
TTITLE4=Lee Fields and The Dap-Kings/Give Me A Chance
TTITLE5=The Meters/Out In The Country
TTITLE6=Jeff Buckley/Strange Fruit
TTITLE7=Ash Grunwald/Smokestack Lightning
TTITLE8=Jonny Lang and Double Trouble/Groundhog Day
TTITLE9=Ray Beadle and The Vipers/Hot Little Mama
TTITLE10=Jamie Cullum/It Ain't Neccessarily So
TTITLE11=The Beastie Boys/Son of a Neckbone
TTITLE12=Milt Jackson/I'm Not So Sure
TTITLE13=The Undisputed Truth/Smiling Faces Sometimes
TTITLE14=Shuggie Otis/Me and My Woman
TTITLE15=John Mayer, Buddy Guy and The Family Stone/You Can Make It If Y
TTITLE15=ou Try
TTITLE16=Jimi Hendrix/Midnight Lightning
EXTD=
EXTT0=
EXTT1=
EXTT2=
EXTT3=
EXTT4=
EXTT5=
EXTT6=
EXTT7=
EXTT8=
EXTT9=
EXTT10=
EXTT11=
EXTT12=
EXTT13=
EXTT14=
EXTT15=
EXTT16=
PLAYORDER=
